<svg width="1122" height="90" viewBox="0 0 1122 90" fill="none" xmlns="http://www.w3.org/2000/svg">
<path d="M17.04 85.92L16.7736 86.884L16.7855 86.8871L17.04 85.92ZM2.04 79.32L1.09811 78.9841L0.840943 79.7052L1.46992 80.1416L2.04 79.32ZM8.16 62.16L8.71885 61.3307L7.65077 60.6109L7.21811 61.8241L8.16 62.16ZM21.12 68.04L20.8412 69.0003L20.8412 69.0003L21.12 68.04ZM47.16 68.16L47.7073 68.997L47.7147 68.992L47.16 68.16ZM48.12 58.44L47.5061 59.2294L47.5163 59.2373L47.5268 59.2451L48.12 58.44ZM40.32 55.56L40.111 56.5379L40.1119 56.5381L40.32 55.56ZM26.28 52.56L26.0691 53.5375L26.071 53.5379L26.28 52.56ZM7.92 14.16L7.11255 13.5699L7.10521 13.5802L7.92 14.16ZM20.52 4.56L20.9056 5.48274L20.9172 5.47772L20.52 4.56ZM55.8 3.59999L55.4926 4.55156L55.5013 4.55437L55.51 4.55702L55.8 3.59999ZM68.64 10.2L69.5746 10.5557L69.8253 9.89702L69.2893 9.43943L68.64 10.2ZM62.52 26.28L61.9268 27.0851L62.9864 27.8658L63.4546 26.6357L62.52 26.28ZM51.96 21.12L51.6552 22.0724L51.6639 22.0752L51.6727 22.0778L51.96 21.12ZM28.68 21.6L29.2151 22.4448L29.225 22.4385L29.2347 22.432L28.68 21.6ZM27.24 31.92L26.6261 32.7093L26.6261 32.7093L27.24 31.92ZM34.92 34.8L34.7076 35.7772L34.7093 35.7776L34.92 34.8ZM48.84 37.8L48.6293 38.7776L48.6322 38.7782L48.84 37.8ZM55.08 84.96L55.4656 85.8827L55.4656 85.8827L55.08 84.96ZM36.12 87.32C29.5611 87.32 23.2869 86.5299 17.2945 84.9529L16.7855 86.8871C22.9531 88.5101 29.3989 89.32 36.12 89.32V87.32ZM17.3063 84.9561C11.302 83.297 6.41317 81.1373 2.61008 78.4984L1.46992 80.1416C5.50683 82.9427 10.618 85.183 16.7737 86.8839L17.3063 84.9561ZM2.98189 79.6559L9.10189 62.4959L7.21811 61.8241L1.09811 78.9841L2.98189 79.6559ZM7.60115 62.9893C11.3799 65.5358 15.7975 67.5361 20.8412 69.0003L21.3988 67.0797C16.5225 65.6639 12.3001 63.7442 8.71885 61.3307L7.60115 62.9893ZM20.8412 69.0003C25.8895 70.466 30.9833 71.2 36.12 71.2V69.2C31.1767 69.2 26.2705 68.494 21.3988 67.0797L20.8412 69.0003ZM36.12 71.2C41.4194 71.2 45.3627 70.53 47.7073 68.997L46.6128 67.323C44.7973 68.51 41.3806 69.2 36.12 69.2V71.2ZM47.7147 68.992C50.0746 67.4188 51.4 65.3786 51.4 62.88H49.4C49.4 64.5414 48.5654 66.0212 46.6053 67.3279L47.7147 68.992ZM51.4 62.88C51.4 60.7126 50.4811 58.9376 48.7132 57.6349L47.5268 59.2451C48.7989 60.1824 49.4 61.3674 49.4 62.88H51.4ZM48.7339 57.6506C47.1023 56.3816 44.3074 55.386 40.5281 54.5819L40.1119 56.5381C43.8526 57.334 46.2577 58.2584 47.5061 59.2294L48.7339 57.6506ZM40.529 54.5821L26.489 51.5821L26.071 53.5379L40.111 56.5379L40.529 54.5821ZM26.4909 51.5825C19.0089 49.968 13.5188 47.2262 9.90327 43.4394C6.30741 39.6732 4.48 34.7839 4.48 28.68H2.48C2.48 35.2161 4.45259 40.6268 8.45673 44.8206C12.4412 48.9937 18.3511 51.872 26.0691 53.5375L26.4909 51.5825ZM4.48 28.68C4.48 23.35 5.90518 18.7165 8.73479 14.7397L7.10521 13.5802C4.01482 17.9235 2.48 22.97 2.48 28.68H4.48ZM8.72739 14.75C11.6465 10.7554 15.6919 7.66151 20.9056 5.48266L20.1344 3.63733C14.6281 5.93848 10.2735 9.24459 7.11261 13.57L8.72739 14.75ZM20.9172 5.47772C26.1275 3.22251 32.2274 2.08 39.24 2.08V0.0799975C32.0126 0.0799975 25.6325 1.25749 20.1228 3.64227L20.9172 5.47772ZM39.24 2.08C44.9828 2.08 50.3985 2.90579 55.4926 4.55156L56.1074 2.64842C50.8015 0.934203 45.1772 0.0799975 39.24 0.0799975V2.08ZM55.51 4.55702C60.6934 6.12776 64.8406 8.2714 67.9907 10.9606L69.2893 9.43943C65.8794 6.5286 61.4666 4.27224 56.09 2.64297L55.51 4.55702ZM67.7054 9.84429L61.5854 25.9243L63.4546 26.6357L69.5746 10.5557L67.7054 9.84429ZM63.1132 25.4749C59.9715 23.16 56.3457 21.3917 52.2474 20.1622L51.6727 22.0778C55.5743 23.2483 58.9885 24.92 61.9268 27.0851L63.1132 25.4749ZM52.2648 20.1676C48.1565 18.8529 43.7327 18.2 39 18.2V20.2C43.5473 20.2 47.7635 20.8271 51.6552 22.0724L52.2648 20.1676ZM39 18.2C34.4236 18.2 30.7572 19.0133 28.1253 20.7679L29.2347 22.432C31.4028 20.9867 34.6164 20.2 39 20.2V18.2ZM28.1449 20.7552C25.505 22.4271 24.08 24.7225 24.08 27.6H26.08C26.08 25.5175 27.055 23.8129 29.2151 22.4448L28.1449 20.7552ZM24.08 27.6C24.08 29.6815 24.9528 31.408 26.6261 32.7093L27.8539 31.1306C26.6472 30.192 26.08 29.0385 26.08 27.6H24.08ZM26.6261 32.7093C28.2544 33.9758 31.0048 34.9722 34.7076 35.7772L35.1324 33.8228C31.4752 33.0278 29.1056 32.1042 27.8539 31.1306L26.6261 32.7093ZM34.7093 35.7776L48.6293 38.7776L49.0507 36.8224L35.1307 33.8224L34.7093 35.7776ZM48.6322 38.7782C56.242 40.3948 61.8261 43.0912 65.5011 46.7853C69.1519 50.455 71 55.1902 71 61.08H73C73 54.7298 70.9881 49.465 66.9189 45.3747C62.8739 41.3087 56.878 38.4852 49.0478 36.8218L48.6322 38.7782ZM71 61.08C71 66.4102 69.5749 70.9998 66.7506 74.8928L68.3694 76.0672C71.4651 71.8002 73 66.7898 73 61.08H71ZM66.7506 74.8928C63.914 78.8027 59.9113 81.8571 54.6944 84.0373L55.4656 85.8827C60.9687 83.5829 65.286 80.3173 68.3694 76.0672L66.7506 74.8928ZM54.6944 84.0373C49.4832 86.2151 43.3 87.32 36.12 87.32V89.32C43.5 89.32 49.9568 88.1849 55.4656 85.8827L54.6944 84.0373ZM108.284 82.92L107.786 83.7869L107.792 83.7906L107.798 83.7942L108.284 82.92ZM93.2841 67.56L92.4074 68.0411L92.4074 68.0411L93.2841 67.56ZM93.1641 21.72L92.2874 21.2389L92.2853 21.2427L93.1641 21.72ZM108.284 6.48L108.77 7.35416L108.77 7.35416L108.284 6.48ZM153.284 6.48L152.794 7.35159L152.798 7.35416L153.284 6.48ZM168.404 21.72L167.527 22.2011L167.53 22.2056L168.404 21.72ZM168.404 67.56L167.527 67.0789L167.527 67.0789L168.404 67.56ZM153.284 82.92L153.774 83.7916L153.778 83.7896L153.284 82.92ZM145.484 63.24L144.705 62.6136L144.703 62.6153L145.484 63.24ZM145.604 26.16L144.823 26.7847L144.823 26.7847L145.604 26.16ZM116.084 63.24L115.298 63.8578L115.303 63.8647L116.084 63.24ZM130.844 87.32C122.427 87.32 115.08 85.5513 108.77 82.0458L107.798 83.7942C114.449 87.4887 122.141 89.32 130.844 89.32V87.32ZM108.783 82.0531C102.544 78.4659 97.6737 73.4803 94.1607 67.0789L92.4074 68.0411C96.0944 74.7597 101.224 80.0141 107.786 83.7869L108.783 82.0531ZM94.1607 67.0789C90.6541 60.6891 88.8841 53.2198 88.8841 44.64H86.8841C86.8841 53.5002 88.714 61.3109 92.4074 68.0411L94.1607 67.0789ZM88.8841 44.64C88.8841 35.9746 90.6164 28.5049 94.0428 22.1973L92.2853 21.2427C88.6717 27.895 86.8841 35.7054 86.8841 44.64H88.8841ZM94.0407 22.2011C97.5509 15.8047 102.456 10.8617 108.77 7.35416L107.798 5.60584C101.152 9.2983 95.9772 14.5153 92.2874 21.2389L94.0407 22.2011ZM108.77 7.35416C115.08 3.84869 122.427 2.08 130.844 2.08V0.0799975C122.141 0.0799975 114.449 1.91131 107.798 5.60584L108.77 7.35416ZM130.844 2.08C139.261 2.08 146.567 3.84879 152.794 7.35157L153.774 5.60842C147.201 1.9112 139.547 0.0799975 130.844 0.0799975V2.08ZM152.798 7.35416C159.112 10.8617 164.017 15.8047 167.527 22.2011L169.281 21.2389C165.591 14.5153 160.416 9.2983 153.77 5.60584L152.798 7.35416ZM167.53 22.2056C171.033 28.5115 172.804 35.9781 172.804 44.64H174.804C174.804 35.7019 172.975 27.8885 169.278 21.2344L167.53 22.2056ZM172.804 44.64C172.804 53.2198 171.034 60.6891 167.527 67.0789L169.281 68.0411C172.974 61.3109 174.804 53.5002 174.804 44.64H172.804ZM167.527 67.0789C164.016 73.4772 159.108 78.4624 152.79 82.0504L153.778 83.7896C160.42 80.0176 165.592 74.7628 169.281 68.0411L167.527 67.0789ZM152.794 82.0484C146.567 85.5512 139.261 87.32 130.844 87.32V89.32C139.547 89.32 147.201 87.4888 153.774 83.7916L152.794 82.0484ZM130.844 70.84C137.351 70.84 142.533 68.5295 146.265 63.8647L144.703 62.6153C141.395 66.7505 136.817 68.84 130.844 68.84V70.84ZM146.264 63.8664C150.052 59.1521 151.884 52.7026 151.884 44.64H149.884C149.884 52.4174 148.116 58.3679 144.705 62.6136L146.264 63.8664ZM151.884 44.64C151.884 36.5834 150.095 30.1723 146.385 25.5353L144.823 26.7847C148.154 30.9477 149.884 36.8566 149.884 44.64H151.884ZM146.385 25.5353C142.65 20.8672 137.426 18.56 130.844 18.56V20.56C136.902 20.56 141.518 22.6528 144.823 26.7847L146.385 25.5353ZM130.844 18.56C124.262 18.56 119.038 20.8672 115.303 25.5353L116.865 26.7847C120.17 22.6528 124.786 20.56 130.844 20.56V18.56ZM115.303 25.5353C111.594 30.1723 109.804 36.5834 109.804 44.64H111.804C111.804 36.8566 113.535 30.9477 116.865 26.7847L115.303 25.5353ZM109.804 44.64C109.804 52.6981 111.594 59.1442 115.298 63.8578L116.87 62.6222C113.534 58.3758 111.804 52.4219 111.804 44.64H109.804ZM115.303 63.8647C119.038 68.5328 124.262 70.84 130.844 70.84V68.84C124.786 68.84 120.17 66.7472 116.865 62.6153L115.303 63.8647ZM194.041 87H193.041V88H194.041V87ZM194.041 2.39999V1.39999H193.041V2.39999H194.041ZM253.081 2.39999H254.081V1.39999H253.081V2.39999ZM253.081 19.44V20.44H254.081V19.44H253.081ZM216.121 19.44V18.44H215.121V19.44H216.121ZM216.121 36.48H215.121V37.48H216.121V36.48ZM250.441 36.48H251.441V35.48H250.441V36.48ZM250.441 53.4V54.4H251.441V53.4H250.441ZM216.121 53.4V52.4H215.121V53.4H216.121ZM216.121 87V88H217.121V87H216.121ZM195.041 87V2.39999H193.041V87H195.041ZM194.041 3.39999H253.081V1.39999H194.041V3.39999ZM252.081 2.39999V19.44H254.081V2.39999H252.081ZM253.081 18.44H216.121V20.44H253.081V18.44ZM215.121 19.44V36.48H217.121V19.44H215.121ZM216.121 37.48H250.441V35.48H216.121V37.48ZM249.441 36.48V53.4H251.441V36.48H249.441ZM250.441 52.4H216.121V54.4H250.441V52.4ZM215.121 53.4V87H217.121V53.4H215.121ZM216.121 86H194.041V88H216.121V86ZM270.733 87H269.733V88H270.733V87ZM270.733 2.39999V1.39999H269.733V2.39999H270.733ZM292.813 2.39999H293.813V1.39999H292.813V2.39999ZM292.813 87V88H293.813V87H292.813ZM271.733 87V2.39999H269.733V87H271.733ZM270.733 3.39999H292.813V1.39999H270.733V3.39999ZM291.813 2.39999V87H293.813V2.39999H291.813ZM292.813 86H270.733V88H292.813V86ZM305.116 87L304.21 86.5761L303.544 88H305.116V87ZM344.716 2.39999V1.39999H344.08L343.81 1.97605L344.716 2.39999ZM362.116 2.39999L363.022 1.97605L362.752 1.39999H362.116V2.39999ZM401.716 87V88H403.288L402.622 86.5761L401.716 87ZM379.636 87L378.716 87.3924L378.975 88H379.636V87ZM372.316 69.84L373.236 69.4476L372.977 68.84H372.316V69.84ZM334.516 69.84V68.84H333.855L333.596 69.4476L334.516 69.84ZM327.196 87V88H327.857L328.116 87.3924L327.196 87ZM353.236 25.44V24.44H352.571L352.314 25.0534L353.236 25.44ZM341.716 52.92L340.794 52.5334L340.212 53.92H341.716V52.92ZM364.996 52.92V53.92H366.499L365.918 52.5334L364.996 52.92ZM353.476 25.44L354.398 25.0534L354.141 24.44H353.476V25.44ZM306.022 87.4239L345.622 2.82393L343.81 1.97605L304.21 86.5761L306.022 87.4239ZM344.716 3.39999H362.116V1.39999H344.716V3.39999ZM361.21 2.82393L400.81 87.4239L402.622 86.5761L363.022 1.97605L361.21 2.82393ZM401.716 86H379.636V88H401.716V86ZM380.556 86.6076L373.236 69.4476L371.396 70.2324L378.716 87.3924L380.556 86.6076ZM372.316 68.84H334.516V70.84H372.316V68.84ZM333.596 69.4476L326.276 86.6076L328.116 87.3924L335.436 70.2324L333.596 69.4476ZM327.196 86H305.116V88H327.196V86ZM352.314 25.0534L340.794 52.5334L342.638 53.3066L354.158 25.8266L352.314 25.0534ZM341.716 53.92H364.996V51.92H341.716V53.92ZM365.918 52.5334L354.398 25.0534L352.554 25.8266L364.074 53.3066L365.918 52.5334ZM353.476 24.44H353.236V26.44H353.476V24.44ZM474.175 82.92L474.648 82.0385L474.648 82.0385L474.175 82.92ZM458.695 67.68L457.814 68.1528L457.819 68.1611L458.695 67.68ZM458.695 21.72L457.819 21.2389L457.817 21.2427L458.695 21.72ZM474.175 6.48L474.648 7.36148L474.648 7.36148L474.175 6.48ZM514.495 3.72L514.175 4.66731L514.188 4.67157L514.495 3.72ZM527.095 10.44L528.03 10.7947L528.277 10.145L527.754 9.68742L527.095 10.44ZM520.495 27.84L519.907 28.6487L520.966 29.4188L521.43 28.1947L520.495 27.84ZM509.935 22.2L509.594 23.1398L509.603 23.1432L509.613 23.1465L509.935 22.2ZM482.335 26.64L483.077 27.3106L483.084 27.3035L482.335 26.64ZM482.335 62.88L481.587 63.5435L481.593 63.5505L482.335 62.88ZM509.935 67.32L510.258 68.2665L510.268 68.2632L510.277 68.2598L509.935 67.32ZM520.495 61.56L521.43 61.2053L520.966 59.9812L519.907 60.7513L520.495 61.56ZM527.095 78.96L527.754 79.7126L528.277 79.255L528.03 78.6053L527.095 78.96ZM514.495 85.8L514.803 86.7517L514.816 86.7472L514.495 85.8ZM498.295 87.32C489.063 87.32 481.193 85.5449 474.648 82.0385L473.703 83.8015C480.598 87.4951 488.808 89.32 498.295 89.32V87.32ZM474.648 82.0385C468.095 78.5282 463.077 73.5857 459.572 67.1989L457.819 68.1611C461.514 74.8943 466.816 80.1118 473.703 83.8015L474.648 82.0385ZM459.576 67.2072C456.148 60.8169 454.415 53.305 454.415 44.64H452.415C452.415 53.575 454.203 61.4231 457.814 68.1528L459.576 67.2072ZM454.415 44.64C454.415 35.9746 456.148 28.5049 459.574 22.1973L457.817 21.2427C454.203 27.895 452.415 35.7054 452.415 44.64H454.415ZM459.572 22.2011C463.077 15.8143 468.095 10.8718 474.648 7.36148L473.703 5.59852C466.816 9.28816 461.514 14.5057 457.819 21.2389L459.572 22.2011ZM474.648 7.36148C481.193 3.85509 489.063 2.08 498.295 2.08V0.0799975C488.808 0.0799975 480.598 1.90491 473.703 5.59852L474.648 7.36148ZM498.295 2.08C503.789 2.08 509.08 2.94287 514.175 4.66722L514.816 2.77278C509.511 0.977123 504.002 0.0799975 498.295 0.0799975V2.08ZM514.188 4.67157C519.294 6.32121 523.364 8.50368 526.437 11.1926L527.754 9.68742C524.427 6.77632 520.097 4.47878 514.803 2.76843L514.188 4.67157ZM526.16 10.0853L519.56 27.4853L521.43 28.1947L528.03 10.7947L526.16 10.0853ZM521.083 27.0313C517.496 24.4221 513.887 22.4908 510.258 21.2535L509.613 23.1465C513.023 24.3092 516.455 26.1379 519.907 28.6487L521.083 27.0313ZM510.277 21.2602C506.65 19.9411 502.934 19.28 499.135 19.28V21.28C502.697 21.28 506.181 21.8989 509.594 23.1398L510.277 21.2602ZM499.135 19.28C491.504 19.28 485.592 21.4606 481.587 25.9765L483.084 27.3035C486.599 23.3394 491.887 21.28 499.135 21.28V19.28ZM481.593 25.9695C477.611 30.3753 475.695 36.6509 475.695 44.64H477.695C477.695 36.9491 479.539 31.2247 483.077 27.3105L481.593 25.9695ZM475.695 44.64C475.695 52.7075 477.61 59.0591 481.587 63.5435L483.084 62.2165C479.54 58.2209 477.695 52.4125 477.695 44.64H475.695ZM481.593 63.5505C485.6 67.983 491.51 70.12 499.135 70.12V68.12C491.881 68.12 486.591 66.097 483.077 62.2095L481.593 63.5505ZM499.135 70.12C502.926 70.12 506.635 69.5015 510.258 68.2665L509.613 66.3735C506.195 67.5385 502.704 68.12 499.135 68.12V70.12ZM510.277 68.2598C513.898 66.9432 517.5 64.975 521.083 62.3687L519.907 60.7513C516.451 63.265 513.013 65.1368 509.594 66.3802L510.277 68.2598ZM519.56 61.9147L526.16 79.3147L528.03 78.6053L521.43 61.2053L519.56 61.9147ZM526.437 78.2074C523.36 80.8998 519.285 83.1232 514.175 84.8528L514.816 86.7472C520.106 84.9568 524.431 82.6202 527.754 79.7126L526.437 78.2074ZM514.188 84.8484C509.09 86.4955 503.794 87.32 498.295 87.32V89.32C503.997 89.32 509.501 88.4645 514.803 86.7516L514.188 84.8484ZM545.158 87H544.158V88H545.158V87ZM545.158 2.39999V1.39999H544.158V2.39999H545.158ZM567.238 2.39999H568.238V1.39999H567.238V2.39999ZM567.238 35.04H566.238V36.04H567.238V35.04ZM602.158 35.04V36.04H603.158V35.04H602.158ZM602.158 2.39999V1.39999H601.158V2.39999H602.158ZM624.118 2.39999H625.118V1.39999H624.118V2.39999ZM624.118 87V88H625.118V87H624.118ZM602.158 87H601.158V88H602.158V87ZM602.158 53.16H603.158V52.16H602.158V53.16ZM567.238 53.16V52.16H566.238V53.16H567.238ZM567.238 87V88H568.238V87H567.238ZM546.158 87V2.39999H544.158V87H546.158ZM545.158 3.39999H567.238V1.39999H545.158V3.39999ZM566.238 2.39999V35.04H568.238V2.39999H566.238ZM567.238 36.04H602.158V34.04H567.238V36.04ZM603.158 35.04V2.39999H601.158V35.04H603.158ZM602.158 3.39999H624.118V1.39999H602.158V3.39999ZM623.118 2.39999V87H625.118V2.39999H623.118ZM624.118 86H602.158V88H624.118V86ZM603.158 87V53.16H601.158V87H603.158ZM602.158 52.16H567.238V54.16H602.158V52.16ZM566.238 53.16V87H568.238V53.16H566.238ZM567.238 86H545.158V88H567.238V86ZM646.694 87H645.694V88H646.694V87ZM646.694 2.39999V1.39999H645.694V2.39999H646.694ZM668.774 2.39999H669.774V1.39999H668.774V2.39999ZM668.774 38.64H667.774V39.64H668.774V38.64ZM669.014 38.64V39.64H669.457L669.755 39.3119L669.014 38.64ZM701.894 2.39999V1.39999H701.451L701.153 1.72805L701.894 2.39999ZM728.054 2.39999L728.784 3.08386L730.362 1.39999H728.054V2.39999ZM690.374 42.6L689.644 41.9161L689.024 42.5782L689.623 43.2599L690.374 42.6ZM729.374 87V88H731.583L730.125 86.3401L729.374 87ZM703.094 87L702.348 87.6661L702.646 88H703.094V87ZM669.014 48.84L669.76 48.1739L669.462 47.84H669.014V48.84ZM668.774 48.84V47.84H667.774V48.84H668.774ZM668.774 87V88H669.774V87H668.774ZM647.694 87V2.39999H645.694V87H647.694ZM646.694 3.39999H668.774V1.39999H646.694V3.39999ZM667.774 2.39999V38.64H669.774V2.39999H667.774ZM668.774 39.64H669.014V37.64H668.774V39.64ZM669.755 39.3119L702.635 3.07193L701.153 1.72805L668.273 37.9681L669.755 39.3119ZM701.894 3.39999H728.054V1.39999H701.894V3.39999ZM727.324 1.71613L689.644 41.9161L691.104 43.2839L728.784 3.08386L727.324 1.71613ZM689.623 43.2599L728.623 87.6599L730.125 86.3401L691.125 41.9401L689.623 43.2599ZM729.374 86H703.094V88H729.374V86ZM703.84 86.3339L669.76 48.1739L668.268 49.5061L702.348 87.6661L703.84 86.3339ZM669.014 47.84H668.774V49.84H669.014V47.84ZM667.774 48.84V87H669.774V48.84H667.774ZM668.774 86H646.694V88H668.774V86ZM726.428 87L725.523 86.5761L724.856 88H726.428V87ZM766.028 2.39999V1.39999H765.392L765.123 1.97605L766.028 2.39999ZM783.428 2.39999L784.334 1.97605L784.064 1.39999H783.428V2.39999ZM823.028 87V88H824.601L823.934 86.5761L823.028 87ZM800.948 87L800.029 87.3924L800.288 88H800.948V87ZM793.628 69.84L794.548 69.4476L794.289 68.84H793.628V69.84ZM755.828 69.84V68.84H755.168L754.909 69.4476L755.828 69.84ZM748.508 87V88H749.169L749.428 87.3924L748.508 87ZM774.548 25.44V24.44H773.883L773.626 25.0534L774.548 25.44ZM763.028 52.92L762.106 52.5334L761.525 53.92H763.028V52.92ZM786.308 52.92V53.92H787.812L787.231 52.5334L786.308 52.92ZM774.788 25.44L775.711 25.0534L775.454 24.44H774.788V25.44ZM727.334 87.4239L766.934 2.82393L765.123 1.97605L725.523 86.5761L727.334 87.4239ZM766.028 3.39999H783.428V1.39999H766.028V3.39999ZM782.523 2.82393L822.123 87.4239L823.934 86.5761L784.334 1.97605L782.523 2.82393ZM823.028 86H800.948V88H823.028V86ZM801.868 86.6076L794.548 69.4476L792.709 70.2324L800.029 87.3924L801.868 86.6076ZM793.628 68.84H755.828V70.84H793.628V68.84ZM754.909 69.4476L747.589 86.6076L749.428 87.3924L756.748 70.2324L754.909 69.4476ZM748.508 86H726.428V88H748.508V86ZM773.626 25.0534L762.106 52.5334L763.951 53.3066L775.471 25.8266L773.626 25.0534ZM763.028 53.92H786.308V51.92H763.028V53.92ZM787.231 52.5334L775.711 25.0534L773.866 25.8266L785.386 53.3066L787.231 52.5334ZM774.788 24.44H774.548V26.44H774.788V24.44ZM835.352 87H834.352V88H835.352V87ZM835.352 2.39999V1.39999H834.352V2.39999H835.352ZM904.472 75.96L905.145 76.6993L905.149 76.6956L904.472 75.96ZM857.432 69.12H856.432V70.12H857.432V69.12ZM887.552 63.12L886.845 62.4129L886.845 62.4129L887.552 63.12ZM887.552 26.28L886.852 26.9941L887.552 26.28ZM857.432 20.28V19.28H856.432V20.28H857.432ZM836.352 87V2.39999H834.352V87H836.352ZM835.352 3.39999H870.392V1.39999H835.352V3.39999ZM870.392 3.39999C884.869 3.39999 895.958 7.03711 903.798 14.1793L905.145 12.7007C896.826 5.12288 885.195 1.39999 870.392 1.39999V3.39999ZM903.798 14.1793C911.624 21.3074 915.592 31.4117 915.592 44.64H917.592C917.592 30.9883 913.48 20.2925 905.145 12.7007L903.798 14.1793ZM915.592 44.64C915.592 57.8679 911.624 68.015 903.795 75.2244L905.149 76.6956C913.48 69.025 917.592 58.2921 917.592 44.64H915.592ZM903.798 75.2207C895.958 82.3629 884.869 86 870.392 86V88C885.195 88 896.826 84.2771 905.145 76.6993L903.798 75.2207ZM870.392 86H835.352V88H870.392V86ZM857.432 70.12H868.952V68.12H857.432V70.12ZM868.952 70.12C877.489 70.12 883.997 68.0889 888.259 63.8271L886.845 62.4129C883.107 66.1511 877.214 68.12 868.952 68.12V70.12ZM888.259 63.8271C892.594 59.4918 894.672 53.0309 894.672 44.64H892.672C892.672 52.7291 890.669 58.5882 886.845 62.4129L888.259 63.8271ZM894.672 44.64C894.672 36.2509 892.595 29.8238 888.252 25.5659L886.852 26.9941C890.669 30.7362 892.672 36.5491 892.672 44.64H894.672ZM888.252 25.5659C883.914 21.3135 877.415 19.28 868.952 19.28V21.28C877.129 21.28 883.029 23.2465 886.852 26.9941L888.252 25.5659ZM868.952 19.28H857.432V21.28H868.952V19.28ZM856.432 20.28V69.12H858.432V20.28H856.432ZM946.008 78.96L945.314 79.6803L945.319 79.6846L946.008 78.96ZM936.288 2.39999V1.39999H935.288V2.39999H936.288ZM958.368 2.39999H959.368V1.39999H958.368V2.39999ZM962.448 65.16L961.694 65.8171L961.694 65.8171L962.448 65.16ZM986.088 65.16L986.842 65.8171L986.842 65.8171L986.088 65.16ZM990.168 2.39999V1.39999H989.168V2.39999H990.168ZM1011.89 2.39999H1012.89V1.39999H1011.89V2.39999ZM1002.29 78.96L1001.59 78.244L1001.59 78.2484L1002.29 78.96ZM974.328 87.32C962.17 87.32 953.013 84.2429 946.697 78.2354L945.319 79.6846C952.123 86.1571 961.845 89.32 974.328 89.32V87.32ZM946.701 78.2397C940.482 72.2506 937.288 63.2338 937.288 51H935.288C935.288 63.5662 938.574 73.1894 945.314 79.6803L946.701 78.2397ZM937.288 51V2.39999H935.288V51H937.288ZM936.288 3.39999H958.368V1.39999H936.288V3.39999ZM957.368 2.39999V51.24H959.368V2.39999H957.368ZM957.368 51.24C957.368 57.527 958.753 62.444 961.694 65.8171L963.202 64.5029C960.702 61.636 959.368 57.273 959.368 51.24H957.368ZM961.694 65.8171C964.651 69.2087 968.919 70.84 974.328 70.84V68.84C969.337 68.84 965.685 67.3513 963.202 64.5029L961.694 65.8171ZM974.328 70.84C979.663 70.84 983.888 69.2053 986.842 65.8171L985.334 64.5029C982.848 67.3547 979.233 68.84 974.328 68.84V70.84ZM986.842 65.8171C989.782 62.444 991.168 57.527 991.168 51.24H989.168C989.168 57.273 987.833 61.636 985.334 64.5029L986.842 65.8171ZM991.168 51.24V2.39999H989.168V51.24H991.168ZM990.168 3.39999H1011.89V1.39999H990.168V3.39999ZM1010.89 2.39999V51H1012.89V2.39999H1010.89ZM1010.89 51C1010.89 63.2371 1007.73 72.2556 1001.59 78.244L1002.99 79.676C1009.64 73.1844 1012.89 63.5629 1012.89 51H1010.89ZM1001.59 78.2484C995.515 84.2418 986.488 87.32 974.328 87.32V89.32C986.807 89.32 996.421 86.1582 1002.99 79.6716L1001.59 78.2484ZM1023.07 87L1022.16 86.5761L1021.5 88H1023.07V87ZM1062.67 2.39999V1.39999H1062.03L1061.76 1.97605L1062.67 2.39999ZM1080.07 2.39999L1080.97 1.97605L1080.7 1.39999H1080.07V2.39999ZM1119.67 87V88H1121.24L1120.57 86.5761L1119.67 87ZM1097.59 87L1096.67 87.3924L1096.93 88H1097.59V87ZM1090.27 69.84L1091.19 69.4476L1090.93 68.84H1090.27V69.84ZM1052.47 69.84V68.84H1051.81L1051.55 69.4476L1052.47 69.84ZM1045.15 87V88H1045.81L1046.07 87.3924L1045.15 87ZM1071.19 25.44V24.44H1070.52L1070.27 25.0534L1071.19 25.44ZM1059.67 52.92L1058.75 52.5334L1058.16 53.92H1059.67V52.92ZM1082.95 52.92V53.92H1084.45L1083.87 52.5334L1082.95 52.92ZM1071.43 25.44L1072.35 25.0534L1072.09 24.44H1071.43V25.44ZM1023.97 87.4239L1063.57 2.82393L1061.76 1.97605L1022.16 86.5761L1023.97 87.4239ZM1062.67 3.39999H1080.07V1.39999H1062.67V3.39999ZM1079.16 2.82393L1118.76 87.4239L1120.57 86.5761L1080.97 1.97605L1079.16 2.82393ZM1119.67 86H1097.59V88H1119.67V86ZM1098.51 86.6076L1091.19 69.4476L1089.35 70.2324L1096.67 87.3924L1098.51 86.6076ZM1090.27 68.84H1052.47V70.84H1090.27V68.84ZM1051.55 69.4476L1044.23 86.6076L1046.07 87.3924L1053.39 70.2324L1051.55 69.4476ZM1045.15 86H1023.07V88H1045.15V86ZM1070.27 25.0534L1058.75 52.5334L1060.59 53.3066L1072.11 25.8266L1070.27 25.0534ZM1059.67 53.92H1082.95V51.92H1059.67V53.92ZM1083.87 52.5334L1072.35 25.0534L1070.51 25.8266L1082.03 53.3066L1083.87 52.5334ZM1071.43 24.44H1071.19V26.44H1071.43V24.44Z" fill="#949292"/>
</svg>
